 <svg xmlns="http://www.w3.org/2000/svg" viewBox="0 0 16 16" width="20" height="20"
       fill="currentColor" stroke="currentColor" stroke-width="0">
    <path d="
      M8 2
      a.5.5 0 0 1 .5.5
      V4
      a.5.5 0 0 1-1 0
      V2.5
      A.5.5 0 0 1 8 2

      M3.732 3.732
      a.5.5 0 0 1 .707 0
      l.915.914
      a.5.5 0 1 1-.708.708
      l-.914-.915
      a.5.5 0 0 1 0-.707

      M2 8
      a.5.5 0 0 1 .5-.5
      h1.586
      a.5.5 0 0 1 0 1
      H2.5
      A.5.5 0 0 1 2 8

      m9.5 0
      a.5.5 0 0 1 .5-.5
      h1.5
      a.5.5 0 0 1 0 1
      H12
      a.5.5 0 0 1-.5-.5

      m.754-4.246
      a.39.39 0 0 0-.527-.02
      L7.547 7.31
      A.91.91 0 1 0 8.85 8.569
      l3.434-4.297
      a.39.39 0 0 0-.029-.518
      z
    " />
    
    <!-- silhouette / outline -->
    <path fill-rule="evenodd" d="
      M6.664 15.889
      A8 8 0 1 1 9.336.11
      a8 8 0 0 1-2.672 15.78
      z

      m-4.665-4.283
      A11.95 11.95 0 0 1 8 10
      c2.186 0 4.236.585 6.001 1.606
      a7 7 0 1 0-12.002 0
    " />
  </svg>